<svg width="872" height="392" viewBox="0 0 872 392" fill="none" xmlns="http://www.w3.org/2000/svg">
<path d="M334.339 331.85C333.939 332.55 333.506 333.067 333.039 333.4C332.606 333.7 332.056 333.85 331.389 333.85C330.689 333.85 329.922 333.6 329.089 333.1C328.289 332.567 327.322 331.983 326.189 331.35C325.056 330.717 323.722 330.15 322.189 329.65C320.689 329.117 318.906 328.85 316.839 328.85C314.972 328.85 313.339 329.083 311.939 329.55C310.539 329.983 309.356 330.6 308.389 331.4C307.456 332.2 306.756 333.167 306.289 334.3C305.822 335.4 305.589 336.617 305.589 337.95C305.589 339.65 306.056 341.067 306.989 342.2C307.956 343.333 309.222 344.3 310.789 345.1C312.356 345.9 314.139 346.617 316.139 347.25C318.139 347.883 320.189 348.567 322.289 349.3C324.389 350 326.439 350.833 328.439 351.8C330.439 352.733 332.222 353.933 333.789 355.4C335.356 356.833 336.606 358.6 337.539 360.7C338.506 362.8 338.989 365.35 338.989 368.35C338.989 371.617 338.422 374.683 337.289 377.55C336.189 380.383 334.556 382.867 332.389 385C330.256 387.1 327.639 388.767 324.539 390C321.439 391.2 317.889 391.8 313.889 391.8C311.589 391.8 309.322 391.567 307.089 391.1C304.856 390.667 302.706 390.033 300.639 389.2C298.606 388.367 296.689 387.367 294.889 386.2C293.089 385.033 291.489 383.733 290.089 382.3L294.039 375.85C294.372 375.383 294.806 375 295.339 374.7C295.872 374.367 296.439 374.2 297.039 374.2C297.872 374.2 298.772 374.55 299.739 375.25C300.706 375.917 301.856 376.667 303.189 377.5C304.522 378.333 306.072 379.1 307.839 379.8C309.639 380.467 311.789 380.8 314.289 380.8C318.122 380.8 321.089 379.9 323.189 378.1C325.289 376.267 326.339 373.65 326.339 370.25C326.339 368.35 325.856 366.8 324.889 365.6C323.956 364.4 322.706 363.4 321.139 362.6C319.572 361.767 317.789 361.067 315.789 360.5C313.789 359.933 311.756 359.317 309.689 358.65C307.622 357.983 305.589 357.183 303.589 356.25C301.589 355.317 299.806 354.1 298.239 352.6C296.672 351.1 295.406 349.233 294.439 347C293.506 344.733 293.039 341.95 293.039 338.65C293.039 336.017 293.556 333.45 294.589 330.95C295.656 328.45 297.189 326.233 299.189 324.3C301.189 322.367 303.656 320.817 306.589 319.65C309.522 318.483 312.889 317.9 316.689 317.9C320.956 317.9 324.889 318.567 328.489 319.9C332.089 321.233 335.156 323.1 337.689 325.5L334.339 331.85ZM361.377 339.7V391H348.977V339.7H361.377ZM363.077 324.75C363.077 325.817 362.86 326.817 362.427 327.75C361.993 328.683 361.41 329.5 360.677 330.2C359.977 330.9 359.143 331.467 358.177 331.9C357.21 332.3 356.177 332.5 355.077 332.5C354.01 332.5 352.993 332.3 352.027 331.9C351.093 331.467 350.277 330.9 349.577 330.2C348.877 329.5 348.31 328.683 347.877 327.75C347.477 326.817 347.277 325.817 347.277 324.75C347.277 323.65 347.477 322.617 347.877 321.65C348.31 320.683 348.877 319.85 349.577 319.15C350.277 318.45 351.093 317.9 352.027 317.5C352.993 317.067 354.01 316.85 355.077 316.85C356.177 316.85 357.21 317.067 358.177 317.5C359.143 317.9 359.977 318.45 360.677 319.15C361.41 319.85 361.993 320.683 362.427 321.65C362.86 322.617 363.077 323.65 363.077 324.75ZM385.517 346C386.551 344.967 387.634 344.017 388.767 343.15C389.934 342.25 391.151 341.5 392.417 340.9C393.717 340.267 395.101 339.783 396.567 339.45C398.034 339.083 399.634 338.9 401.367 338.9C404.167 338.9 406.651 339.383 408.817 340.35C410.984 341.283 412.784 342.617 414.217 344.35C415.684 346.05 416.784 348.1 417.517 350.5C418.284 352.867 418.667 355.483 418.667 358.35V391H406.317V358.35C406.317 355.217 405.601 352.8 404.167 351.1C402.734 349.367 400.551 348.5 397.617 348.5C395.484 348.5 393.484 348.983 391.617 349.95C389.751 350.917 387.984 352.233 386.317 353.9V391H373.967V339.7H381.517C383.117 339.7 384.167 340.45 384.667 341.95L385.517 346ZM457.513 369.1C453.946 369.267 450.946 369.583 448.513 370.05C446.079 370.483 444.129 371.05 442.663 371.75C441.196 372.45 440.146 373.267 439.513 374.2C438.879 375.133 438.563 376.15 438.563 377.25C438.563 379.417 439.196 380.967 440.463 381.9C441.763 382.833 443.446 383.3 445.513 383.3C448.046 383.3 450.229 382.85 452.063 381.95C453.929 381.017 455.746 379.617 457.513 377.75V369.1ZM429.213 346.85C435.113 341.45 442.213 338.75 450.513 338.75C453.513 338.75 456.196 339.25 458.563 340.25C460.929 341.217 462.929 342.583 464.563 344.35C466.196 346.083 467.429 348.167 468.263 350.6C469.129 353.033 469.563 355.7 469.563 358.6V391H463.963C462.796 391 461.896 390.833 461.263 390.5C460.629 390.133 460.129 389.417 459.763 388.35L458.663 384.65C457.363 385.817 456.096 386.85 454.863 387.75C453.629 388.617 452.346 389.35 451.013 389.95C449.679 390.55 448.246 391 446.713 391.3C445.213 391.633 443.546 391.8 441.713 391.8C439.546 391.8 437.546 391.517 435.713 390.95C433.879 390.35 432.296 389.467 430.963 388.3C429.629 387.133 428.596 385.683 427.863 383.95C427.129 382.217 426.763 380.2 426.763 377.9C426.763 376.6 426.979 375.317 427.413 374.05C427.846 372.75 428.546 371.517 429.513 370.35C430.513 369.183 431.796 368.083 433.363 367.05C434.929 366.017 436.846 365.117 439.113 364.35C441.413 363.583 444.079 362.967 447.113 362.5C450.146 362 453.613 361.7 457.513 361.6V358.6C457.513 355.167 456.779 352.633 455.313 351C453.846 349.333 451.729 348.5 448.963 348.5C446.963 348.5 445.296 348.733 443.963 349.2C442.663 349.667 441.513 350.2 440.513 350.8C439.513 351.367 438.596 351.883 437.763 352.35C436.963 352.817 436.063 353.05 435.063 353.05C434.196 353.05 433.463 352.833 432.863 352.4C432.263 351.933 431.779 351.4 431.413 350.8L429.213 346.85ZM542.34 363.7L533.54 339.65C533.107 338.583 532.657 337.317 532.19 335.85C531.723 334.383 531.257 332.8 530.79 331.1C530.357 332.8 529.907 334.4 529.44 335.9C528.973 337.367 528.523 338.65 528.09 339.75L519.34 363.7H542.34ZM566.09 391H555.69C554.523 391 553.573 390.717 552.84 390.15C552.107 389.55 551.557 388.817 551.19 387.95L545.79 373.2H515.84L510.44 387.95C510.173 388.717 509.657 389.417 508.89 390.05C508.123 390.683 507.173 391 506.04 391H495.54L523.99 318.7H537.69L566.09 391ZM587.073 391H573.573V318.7H587.073V391Z" fill="white"/>
<path d="M271.409 195.194C271.409 198.795 268.494 201.71 264.892 201.71C261.291 201.71 258.376 198.795 258.376 195.194V99.6559C258.376 96.0542 261.291 93.1396 264.892 93.1396C268.494 93.1396 271.409 96.0542 271.409 99.6559V195.194Z" fill="#D9F6F5"/>
<path d="M138.957 195.194C138.957 198.795 136.042 201.71 132.441 201.71C128.839 201.71 125.924 198.795 125.924 195.194V99.6559C125.924 96.0542 128.839 93.1396 132.441 93.1396C136.042 93.1396 138.957 96.0542 138.957 99.6559V195.194Z" fill="#D9F6F5"/>
<path d="M13.0324 195.194C13.0324 198.795 10.1178 201.71 6.5162 201.71C2.91456 201.71 0 198.795 0 195.194V99.6559C0 96.0542 2.91456 93.1396 6.5162 93.1396C10.1178 93.1396 13.0324 96.0542 13.0324 99.6559V195.194Z" fill="#D9F6F5"/>
<path d="M227.978 238.613C227.978 242.215 225.064 245.129 221.462 245.129C217.86 245.129 214.946 242.215 214.946 238.613V34.5162C214.946 30.9146 217.86 28 221.462 28C225.064 28 227.978 30.9146 227.978 34.5162V238.613Z" fill="#D9F6F5"/>
<path d="M54.2797 238.613C54.2797 242.215 51.3652 245.129 47.7635 245.129C44.1619 245.129 41.2473 242.215 41.2473 238.613V34.5162C41.2473 30.9146 44.1619 28 47.7635 28C51.3652 28 54.2797 30.9146 54.2797 34.5162V238.613Z" fill="#D9F6F5"/>
<path d="M182.387 220.161C182.387 223.164 179.96 225.591 176.957 225.591C173.953 225.591 171.526 223.164 171.526 220.161V74.688C171.526 71.6848 173.953 69.2578 176.957 69.2578C179.96 69.2578 182.387 71.6848 182.387 74.688V220.161Z" fill="#D9F6F5"/>
<path d="M93.3658 213.645C93.3658 216.649 90.9389 219.076 87.9357 219.076C84.9324 219.076 82.5055 216.649 82.5055 213.645V68.1724C82.5055 65.1691 84.9324 62.7422 87.9357 62.7422C90.9389 62.7422 93.3658 65.1691 93.3658 68.1724V213.645Z" fill="#D9F6F5"/>
<path d="M613.032 105.656C613.032 102.054 610.118 99.1396 606.516 99.1396C602.915 99.1396 600 102.054 600 105.656V201.194C600 204.795 602.915 207.71 606.516 207.71C610.118 207.71 613.032 204.795 613.032 201.194V105.656Z" fill="#D9F6F5"/>
<path d="M745.484 105.656C745.484 102.054 742.57 99.1396 738.968 99.1396C735.366 99.1396 732.452 102.054 732.452 105.656V201.194C732.452 204.795 735.366 207.71 738.968 207.71C742.57 207.71 745.484 204.795 745.484 201.194V105.656Z" fill="#D9F6F5"/>
<path d="M871.42 105.656C871.42 102.054 868.505 99.1396 864.904 99.1396C861.302 99.1396 858.387 102.054 858.387 105.656V201.194C858.387 204.795 861.302 207.71 864.904 207.71C868.505 207.71 871.42 204.795 871.42 201.194V105.656Z" fill="#D9F6F5"/>
<path d="M656.463 40.5162C656.463 36.9146 653.548 34 649.946 34C646.345 34 643.43 36.9146 643.43 40.5162V244.613C643.43 248.215 646.345 251.129 649.946 251.129C653.548 251.129 656.463 248.215 656.463 244.613V40.5162Z" fill="#D9F6F5"/>
<path d="M830.162 40.5162C830.162 36.9146 827.247 34 823.646 34C820.044 34 817.129 36.9146 817.129 40.5162V244.613C817.129 248.215 820.044 251.129 823.646 251.129C827.247 251.129 830.162 248.215 830.162 244.613V40.5162Z" fill="#D9F6F5"/>
<path d="M699.882 80.688C699.882 77.6848 697.455 75.2578 694.452 75.2578C691.449 75.2578 689.022 77.6848 689.022 80.688V226.161C689.022 229.164 691.449 231.591 694.452 231.591C697.455 231.591 699.882 229.164 699.882 226.161V80.688Z" fill="#D9F6F5"/>
<path d="M788.904 74.1724C788.904 71.1691 786.477 68.7422 783.473 68.7422C780.47 68.7422 778.043 71.1691 778.043 74.1724V219.645C778.043 222.649 780.47 225.076 783.473 225.076C786.477 225.076 788.904 222.649 788.904 219.645V74.1724Z" fill="#D9F6F5"/>
<path d="M577.028 173.955C585.908 166.609 591 156.054 591 145C591 133.946 585.904 123.383 577.024 116.038C576.671 115.746 576.293 115.481 575.932 115.201C576.338 114.694 576.723 114.176 577.089 113.646C577.166 113.551 577.259 113.479 577.328 113.377C577.58 113.006 577.804 112.628 578.035 112.246C578.047 112.223 578.063 112.2 578.076 112.181C579.026 110.603 579.797 108.949 580.386 107.235C580.402 107.193 580.414 107.152 580.431 107.11C580.987 105.464 581.373 103.768 581.584 102.043C581.604 101.865 581.628 101.687 581.645 101.505C581.73 100.673 581.787 99.8326 581.787 98.9887C581.787 85.4139 570.966 74.1816 556.945 72.3159C555.016 47.6792 533.849 27.9546 507.415 26.1532C505.414 13.0893 493.358 3 478.797 3C462.836 3 449.854 15.1027 449.854 29.9755V63.7177C444.304 65.3979 440.276 70.2572 440.276 75.983C440.276 81.7089 444.304 86.5681 449.854 88.2484V93.6072C449.854 110.172 463.376 123.845 480.673 125.552C482.415 130.82 487.686 134.661 493.902 134.661C500.119 134.661 505.426 130.793 507.147 125.495C521.217 123.826 532.152 112.726 532.399 99.2196C532.403 99.1401 532.424 99.0682 532.424 98.9887C532.424 88.4944 541.584 79.9567 552.844 79.9567C564.103 79.9567 573.26 88.4944 573.26 98.9887C573.26 99.5677 573.219 100.143 573.166 100.711C573.15 100.896 573.126 101.078 573.106 101.263C573.053 101.676 572.984 102.084 572.903 102.489C572.85 102.747 572.797 103.004 572.736 103.258C572.639 103.651 572.529 104.045 572.407 104.431C572.318 104.707 572.22 104.979 572.119 105.252C572.03 105.494 571.932 105.733 571.831 105.971C571.668 106.357 571.489 106.739 571.303 107.114C571.144 107.424 570.986 107.735 570.811 108.037C570.669 108.283 570.511 108.522 570.357 108.764C569.906 109.46 569.402 110.13 568.854 110.773C567.124 109.922 565.342 109.169 563.503 108.556C561.29 107.814 558.845 108.885 558.049 110.951C557.253 113.018 558.407 115.292 560.62 116.034C562.934 116.81 565.155 117.831 567.23 119.069C567.25 119.08 567.271 119.088 567.287 119.103C567.303 119.114 567.323 119.122 567.344 119.133C568.757 119.985 570.109 120.942 571.368 121.983C578.429 127.822 582.477 136.213 582.477 145C582.477 153.787 578.429 162.174 571.372 168.013C570.868 168.43 570.511 168.937 570.271 169.482C568.984 168.577 567.612 167.752 566.146 167.044C559.207 163.691 553.92 158.942 550.696 153.243C555.317 151.15 558.52 146.745 558.52 141.643C558.52 134.528 552.312 128.742 544.678 128.742C537.045 128.742 530.836 134.528 530.836 141.643C530.836 147.819 535.518 152.989 541.747 154.245L541.885 154.537C545.738 162.768 552.771 169.535 562.219 174.099C569.029 177.387 573.256 183.866 573.256 191.008C573.256 200.208 566.211 207.905 556.884 209.657C554.61 185.244 533.439 165.811 507.107 164.157C505.349 158.915 500.09 155.101 493.894 155.101C486.26 155.101 480.052 160.887 480.052 168.002C480.052 175.117 486.26 180.903 493.894 180.903C499.981 180.903 505.154 177.217 507.001 172.119C530.223 173.803 548.572 191.942 548.572 214.013C548.572 236.084 530.422 254.03 507.371 255.881C505.783 246.397 498.884 238.207 488.9 234.737C485.347 233.503 483.053 230.589 483.053 227.312V225.764C483.053 221.476 486.796 217.987 491.397 217.987H495.287C497.09 223.16 502.303 226.914 508.451 226.914C516.084 226.914 522.293 221.128 522.293 214.013C522.293 206.898 516.084 201.112 508.451 201.112C502.307 201.112 497.094 204.866 495.287 210.04H491.397C482.094 210.04 474.526 217.094 474.526 225.764V227.312C474.526 233.942 479 239.778 485.919 242.181C494.702 245.235 500.111 253.466 499.075 262.201C498.04 270.927 490.495 277.963 481.128 278.928C475.22 279.537 469.552 277.857 465.17 274.197C460.846 270.591 458.369 265.421 458.369 260.017V145C458.369 133.499 448.332 124.144 435.992 124.144C430.762 124.144 425.954 125.839 422.142 128.651V29.9793C422.142 22.3196 418.629 14.9929 412.502 9.88012C406.379 4.77112 398.144 2.32258 389.918 3.17408C376.896 4.51378 366.375 14.1263 364.56 26.1608C338.135 27.966 316.976 47.6905 315.047 72.3197C301.03 74.1854 290.205 85.4215 290.205 98.9925C290.205 99.6472 290.233 100.298 290.282 100.945C290.29 101.059 290.311 101.172 290.319 101.286C290.367 101.823 290.424 102.361 290.51 102.894C290.522 102.959 290.534 103.023 290.546 103.087C290.644 103.67 290.753 104.249 290.891 104.821V104.828C291.606 107.848 292.873 110.739 294.659 113.381C294.684 113.419 294.724 113.445 294.749 113.483C295.171 114.1 295.614 114.698 296.089 115.281C295.894 115.379 295.703 115.481 295.52 115.61C295.297 115.773 295.106 115.917 294.964 116.038C286.096 123.383 281 133.938 281 145C281 145 281 145.004 281 145.008C281 145.011 281 145.011 281 145.015C281 156.073 286.096 166.632 294.976 173.978C295.325 174.265 295.699 174.53 296.06 174.806C292.321 179.45 290.213 185.138 290.213 191.008C290.213 204.582 301.034 215.815 315.055 217.68C316.984 242.317 338.151 262.042 364.585 263.843C366.586 276.907 378.642 286.996 393.203 286.996C409.164 286.996 422.146 274.894 422.146 260.021V226.279C427.696 224.598 431.724 219.739 431.724 214.013C431.724 208.287 427.696 203.428 422.146 201.748V196.162C422.146 179.597 408.62 165.924 391.327 164.217C389.585 158.949 384.314 155.104 378.098 155.104C371.881 155.104 366.647 158.919 364.885 164.161C338.553 165.814 317.382 185.248 315.108 209.661C305.781 207.905 298.736 200.211 298.736 191.011C298.736 186.659 300.295 182.58 303.138 179.242C304.871 180.097 306.658 180.85 308.497 181.463C308.973 181.622 309.46 181.698 309.939 181.698C311.689 181.698 313.325 180.687 313.951 179.064C314.746 176.997 313.593 174.723 311.376 173.981C309.074 173.213 306.865 172.195 304.794 170.965C304.75 170.935 304.705 170.916 304.66 170.889C304.66 170.889 304.66 170.889 304.656 170.889C303.264 170.053 301.932 169.107 300.693 168.085C300.669 168.062 300.653 168.04 300.628 168.017C293.571 162.181 289.527 153.795 289.523 145.011C289.523 141.961 290.043 138.964 290.977 136.099C291.05 135.872 291.098 135.637 291.18 135.41C291.289 135.096 291.439 134.801 291.561 134.491C293.035 130.744 295.252 127.247 298.204 124.239C298.35 124.087 298.521 123.955 298.671 123.811C299.341 123.152 300.019 122.505 300.758 121.896C301.241 121.548 301.615 121.12 301.891 120.647C303.548 121.798 305.347 122.793 307.275 123.603C312.485 125.79 317.089 129.31 320.638 133.719C316.375 135.921 313.484 140.152 313.484 145.008C313.484 152.122 319.692 157.909 327.326 157.909C334.959 157.909 341.168 152.122 341.168 145.008C341.168 138.714 336.303 133.469 329.9 132.341C325.292 125.283 318.596 119.64 310.783 116.359C304.413 113.68 300.007 108.162 298.98 101.842C298.976 101.816 298.968 101.785 298.963 101.759C298.903 101.373 298.862 100.987 298.825 100.597C298.817 100.525 298.805 100.453 298.801 100.381C298.765 99.9235 298.748 99.4655 298.748 99.0038C298.748 88.5096 307.909 79.9719 319.164 79.9719C330.42 79.9719 339.584 88.5096 339.584 99.0038C339.584 99.0833 339.605 99.159 339.609 99.2347C339.856 112.741 350.791 123.841 364.861 125.51C366.582 130.808 371.865 134.676 378.106 134.676C385.74 134.676 391.948 128.89 391.948 121.775C391.948 114.66 385.74 108.874 378.106 108.874C372.08 108.874 366.956 112.488 365.06 117.506C355.453 115.966 348.111 108.162 348.111 98.773C348.111 98.6935 348.091 98.6178 348.087 98.5421C347.843 85.2852 337.302 74.3557 323.61 72.3765C325.478 52.0843 342.873 35.8755 364.641 34.1309C366.217 43.4557 372.941 51.5734 382.666 55.1194C386.422 56.4894 388.947 60.0316 388.947 63.9334C388.947 69.2127 384.339 73.508 378.674 73.508H376.717C374.914 68.3347 369.701 64.5805 363.553 64.5805C355.92 64.5805 349.711 70.3669 349.711 77.4817C349.711 84.5964 355.92 90.3829 363.553 90.3829C369.697 90.3829 374.914 86.6287 376.717 81.4554H378.674C389.041 81.4554 397.474 73.5951 397.474 63.9334C397.474 56.7883 392.772 50.2715 385.772 47.7208C377.188 44.5911 371.902 36.4015 372.921 27.8108C373.956 19.0839 381.5 12.0486 390.868 11.0836C396.776 10.4781 402.444 12.1546 406.826 15.8141C411.15 19.4207 413.627 24.5903 413.627 29.9945V145.011C413.627 156.512 423.664 165.867 436.004 165.867C441.234 165.867 446.042 164.172 449.854 161.36V260.028C449.854 267.688 453.367 275.015 459.494 280.127C464.817 284.57 471.736 287 478.866 287C479.934 287 481.006 286.947 482.078 286.837C495.1 285.498 505.621 275.885 507.436 263.851C533.861 262.045 555.02 242.321 556.949 217.692C570.966 215.826 581.791 204.59 581.791 191.019C581.791 184.968 579.635 179.264 575.854 174.651C576.277 174.488 576.679 174.265 577.036 173.97L577.028 173.955ZM454.11 71.0368C457.041 71.0368 459.425 73.2582 459.425 75.9906C459.425 78.723 457.041 80.9445 454.11 80.9445C451.178 80.9445 448.795 78.723 448.795 75.9906C448.795 73.2582 451.178 71.0368 454.11 71.0368ZM493.894 126.721C490.962 126.721 488.579 124.5 488.579 121.767C488.579 119.035 490.958 116.817 493.886 116.813C493.886 116.813 493.886 116.813 493.89 116.813C496.818 116.813 499.201 119.035 499.201 121.767C499.201 124.5 496.818 126.721 493.886 126.721H493.894ZM523.913 98.5346C523.909 98.614 523.889 98.6859 523.889 98.7654C523.889 108.155 516.547 115.958 506.94 117.498C505.71 114.244 503.123 111.591 499.806 110.123L509.133 90.0763C515.358 88.8161 520.035 83.6466 520.035 77.4741C520.035 70.3594 513.827 64.5729 506.193 64.5729C498.56 64.5729 492.351 70.3594 492.351 77.4741C492.351 82.6134 495.599 87.0488 500.281 89.1189L490.954 109.165C486.22 110.123 482.395 113.343 480.827 117.548C468.171 115.951 458.369 105.839 458.369 93.611V88.2522C463.92 86.5719 467.948 81.7127 467.948 75.9868C467.948 70.261 463.92 65.4017 458.369 63.7214V29.9793C458.369 19.485 467.529 10.9511 478.785 10.9511C490.041 10.9511 499.205 19.4888 499.205 29.9793C499.205 40.4698 490.045 49.0113 478.785 49.0113C476.43 49.0113 474.522 50.79 474.522 52.985C474.522 55.1799 476.43 56.9586 478.785 56.9586C493.232 56.9586 505.207 47.032 507.354 34.1195C529.127 35.8603 546.522 52.0729 548.39 72.3651C534.694 74.3444 524.153 85.2739 523.913 98.5308V98.5346ZM506.193 82.428C503.262 82.428 500.878 80.2065 500.878 77.4741C500.878 74.7417 503.262 72.5203 506.193 72.5203C509.125 72.5203 511.508 74.7417 511.508 77.4741C511.508 80.2065 509.125 82.428 506.193 82.428ZM544.674 136.689C547.606 136.689 549.989 138.911 549.989 141.643C549.989 144.376 547.606 146.597 544.674 146.597C541.743 146.597 539.359 144.376 539.359 141.643C539.359 138.911 541.743 136.689 544.674 136.689ZM493.894 172.956C490.962 172.956 488.579 170.734 488.579 168.002C488.579 165.269 490.962 163.048 493.894 163.048C496.826 163.048 499.209 165.269 499.209 168.002C499.209 170.734 496.826 172.956 493.894 172.956ZM508.447 209.059C511.374 209.059 513.762 211.281 513.762 214.013C513.762 216.746 511.378 218.967 508.447 218.967C505.515 218.967 503.132 216.746 503.132 214.013C503.132 211.281 505.515 209.059 508.447 209.059ZM417.882 218.963C414.951 218.963 412.567 216.742 412.567 214.009C412.567 211.277 414.951 209.056 417.882 209.056C420.814 209.056 423.197 211.277 423.197 214.009C423.197 216.742 420.814 218.963 417.882 218.963ZM378.098 163.052C381.029 163.052 383.413 165.273 383.413 168.006C383.413 170.738 381.029 172.959 378.098 172.959C375.166 172.959 372.783 170.738 372.783 168.006C372.783 165.273 375.166 163.052 378.098 163.052ZM364.991 172.119C366.172 175.385 368.722 178.061 371.999 179.567L360.723 201.381C354.438 202.599 349.703 207.795 349.703 214.009C349.703 221.124 355.911 226.911 363.545 226.911C371.179 226.911 377.387 221.124 377.387 214.009C377.387 208.938 374.22 204.552 369.64 202.444L380.916 180.631C385.703 179.703 389.581 176.46 391.164 172.222C403.821 173.819 413.623 183.931 413.623 196.158V201.744C408.072 203.424 404.044 208.284 404.044 214.009C404.044 219.735 408.072 224.594 413.623 226.275V260.017C413.623 270.511 404.462 279.045 393.207 279.045C381.951 279.045 372.787 270.507 372.787 260.017C372.787 249.526 381.947 240.985 393.207 240.985C395.562 240.985 397.47 239.206 397.47 237.011C397.47 234.816 395.562 233.038 393.207 233.038C378.76 233.038 366.785 242.964 364.637 255.877C341.582 254.034 323.424 235.967 323.424 214.009C323.424 192.052 341.773 173.803 364.995 172.116L364.991 172.119ZM363.537 209.059C363.537 209.059 363.537 209.059 363.541 209.059C366.469 209.059 368.852 211.281 368.852 214.013C368.852 216.746 366.469 218.967 363.537 218.967C360.605 218.967 358.222 216.746 358.222 214.013C358.222 211.281 360.601 209.063 363.529 209.063L363.537 209.059ZM327.318 149.954C324.386 149.954 322.003 147.732 322.003 145C322.003 142.268 324.386 140.05 327.314 140.046C327.314 140.046 327.314 140.046 327.318 140.046C330.245 140.046 332.625 142.268 332.625 144.996C332.625 147.725 330.241 149.95 327.31 149.95L327.318 149.954ZM378.098 116.817C381.029 116.817 383.413 119.039 383.413 121.771C383.413 124.503 381.029 126.725 378.098 126.725C375.166 126.725 372.783 124.503 372.783 121.771C372.783 119.039 375.166 116.817 378.098 116.817ZM363.545 82.428C360.618 82.428 358.23 80.2065 358.23 77.4741C358.23 74.7417 360.613 72.5203 363.545 72.5203C366.477 72.5203 368.86 74.7417 368.86 77.4741C368.86 80.2065 366.477 82.428 363.545 82.428ZM435.996 157.909C428.358 157.909 422.146 152.119 422.146 145C422.146 137.881 428.358 132.091 435.996 132.091C443.634 132.091 449.846 137.881 449.846 145C449.846 152.119 443.634 157.909 435.996 157.909Z" fill="white"/>
<circle cx="435.5" cy="143.5" r="143.5" fill="#5881F2" fill-opacity="0.1"/>
</svg>
