<svg width="784" height="392" viewBox="0 0 784 392" fill="none" xmlns="http://www.w3.org/2000/svg">
<path d="M290.339 331.85C289.939 332.55 289.506 333.067 289.039 333.4C288.606 333.7 288.056 333.85 287.389 333.85C286.689 333.85 285.922 333.6 285.089 333.1C284.289 332.567 283.322 331.983 282.189 331.35C281.056 330.717 279.722 330.15 278.189 329.65C276.689 329.117 274.906 328.85 272.839 328.85C270.972 328.85 269.339 329.083 267.939 329.55C266.539 329.983 265.356 330.6 264.389 331.4C263.456 332.2 262.756 333.167 262.289 334.3C261.822 335.4 261.589 336.617 261.589 337.95C261.589 339.65 262.056 341.067 262.989 342.2C263.956 343.333 265.222 344.3 266.789 345.1C268.356 345.9 270.139 346.617 272.139 347.25C274.139 347.883 276.189 348.567 278.289 349.3C280.389 350 282.439 350.833 284.439 351.8C286.439 352.733 288.222 353.933 289.789 355.4C291.356 356.833 292.606 358.6 293.539 360.7C294.506 362.8 294.989 365.35 294.989 368.35C294.989 371.617 294.422 374.683 293.289 377.55C292.189 380.383 290.556 382.867 288.389 385C286.256 387.1 283.639 388.767 280.539 390C277.439 391.2 273.889 391.8 269.889 391.8C267.589 391.8 265.322 391.567 263.089 391.1C260.856 390.667 258.706 390.033 256.639 389.2C254.606 388.367 252.689 387.367 250.889 386.2C249.089 385.033 247.489 383.733 246.089 382.3L250.039 375.85C250.372 375.383 250.806 375 251.339 374.7C251.872 374.367 252.439 374.2 253.039 374.2C253.872 374.2 254.772 374.55 255.739 375.25C256.706 375.917 257.856 376.667 259.189 377.5C260.522 378.333 262.072 379.1 263.839 379.8C265.639 380.467 267.789 380.8 270.289 380.8C274.122 380.8 277.089 379.9 279.189 378.1C281.289 376.267 282.339 373.65 282.339 370.25C282.339 368.35 281.856 366.8 280.889 365.6C279.956 364.4 278.706 363.4 277.139 362.6C275.572 361.767 273.789 361.067 271.789 360.5C269.789 359.933 267.756 359.317 265.689 358.65C263.622 357.983 261.589 357.183 259.589 356.25C257.589 355.317 255.806 354.1 254.239 352.6C252.672 351.1 251.406 349.233 250.439 347C249.506 344.733 249.039 341.95 249.039 338.65C249.039 336.017 249.556 333.45 250.589 330.95C251.656 328.45 253.189 326.233 255.189 324.3C257.189 322.367 259.656 320.817 262.589 319.65C265.522 318.483 268.889 317.9 272.689 317.9C276.956 317.9 280.889 318.567 284.489 319.9C288.089 321.233 291.156 323.1 293.689 325.5L290.339 331.85ZM317.377 339.7V391H304.977V339.7H317.377ZM319.077 324.75C319.077 325.817 318.86 326.817 318.427 327.75C317.993 328.683 317.41 329.5 316.677 330.2C315.977 330.9 315.143 331.467 314.177 331.9C313.21 332.3 312.177 332.5 311.077 332.5C310.01 332.5 308.993 332.3 308.027 331.9C307.093 331.467 306.277 330.9 305.577 330.2C304.877 329.5 304.31 328.683 303.877 327.75C303.477 326.817 303.277 325.817 303.277 324.75C303.277 323.65 303.477 322.617 303.877 321.65C304.31 320.683 304.877 319.85 305.577 319.15C306.277 318.45 307.093 317.9 308.027 317.5C308.993 317.067 310.01 316.85 311.077 316.85C312.177 316.85 313.21 317.067 314.177 317.5C315.143 317.9 315.977 318.45 316.677 319.15C317.41 319.85 317.993 320.683 318.427 321.65C318.86 322.617 319.077 323.65 319.077 324.75ZM341.517 346C342.551 344.967 343.634 344.017 344.767 343.15C345.934 342.25 347.151 341.5 348.417 340.9C349.717 340.267 351.101 339.783 352.567 339.45C354.034 339.083 355.634 338.9 357.367 338.9C360.167 338.9 362.651 339.383 364.817 340.35C366.984 341.283 368.784 342.617 370.217 344.35C371.684 346.05 372.784 348.1 373.517 350.5C374.284 352.867 374.667 355.483 374.667 358.35V391H362.317V358.35C362.317 355.217 361.601 352.8 360.167 351.1C358.734 349.367 356.551 348.5 353.617 348.5C351.484 348.5 349.484 348.983 347.617 349.95C345.751 350.917 343.984 352.233 342.317 353.9V391H329.967V339.7H337.517C339.117 339.7 340.167 340.45 340.667 341.95L341.517 346ZM413.513 369.1C409.946 369.267 406.946 369.583 404.513 370.05C402.079 370.483 400.129 371.05 398.663 371.75C397.196 372.45 396.146 373.267 395.513 374.2C394.879 375.133 394.563 376.15 394.563 377.25C394.563 379.417 395.196 380.967 396.463 381.9C397.763 382.833 399.446 383.3 401.513 383.3C404.046 383.3 406.229 382.85 408.063 381.95C409.929 381.017 411.746 379.617 413.513 377.75V369.1ZM385.213 346.85C391.113 341.45 398.213 338.75 406.513 338.75C409.513 338.75 412.196 339.25 414.563 340.25C416.929 341.217 418.929 342.583 420.563 344.35C422.196 346.083 423.429 348.167 424.263 350.6C425.129 353.033 425.563 355.7 425.563 358.6V391H419.963C418.796 391 417.896 390.833 417.263 390.5C416.629 390.133 416.129 389.417 415.763 388.35L414.663 384.65C413.363 385.817 412.096 386.85 410.863 387.75C409.629 388.617 408.346 389.35 407.013 389.95C405.679 390.55 404.246 391 402.713 391.3C401.213 391.633 399.546 391.8 397.713 391.8C395.546 391.8 393.546 391.517 391.713 390.95C389.879 390.35 388.296 389.467 386.963 388.3C385.629 387.133 384.596 385.683 383.863 383.95C383.129 382.217 382.763 380.2 382.763 377.9C382.763 376.6 382.979 375.317 383.413 374.05C383.846 372.75 384.546 371.517 385.513 370.35C386.513 369.183 387.796 368.083 389.363 367.05C390.929 366.017 392.846 365.117 395.113 364.35C397.413 363.583 400.079 362.967 403.113 362.5C406.146 362 409.613 361.7 413.513 361.6V358.6C413.513 355.167 412.779 352.633 411.313 351C409.846 349.333 407.729 348.5 404.963 348.5C402.963 348.5 401.296 348.733 399.963 349.2C398.663 349.667 397.513 350.2 396.513 350.8C395.513 351.367 394.596 351.883 393.763 352.35C392.963 352.817 392.063 353.05 391.063 353.05C390.196 353.05 389.463 352.833 388.863 352.4C388.263 351.933 387.779 351.4 387.413 350.8L385.213 346.85ZM498.34 363.7L489.54 339.65C489.107 338.583 488.657 337.317 488.19 335.85C487.723 334.383 487.257 332.8 486.79 331.1C486.357 332.8 485.907 334.4 485.44 335.9C484.973 337.367 484.523 338.65 484.09 339.75L475.34 363.7H498.34ZM522.09 391H511.69C510.523 391 509.573 390.717 508.84 390.15C508.107 389.55 507.557 388.817 507.19 387.95L501.79 373.2H471.84L466.44 387.95C466.173 388.717 465.657 389.417 464.89 390.05C464.123 390.683 463.173 391 462.04 391H451.54L479.99 318.7H493.69L522.09 391ZM543.073 391H529.573V318.7H543.073V391Z" fill="#000F6F"/>
<path d="M271.409 195.194C271.409 198.795 268.494 201.71 264.892 201.71C261.291 201.71 258.376 198.795 258.376 195.194V99.656C258.376 96.0544 261.291 93.1398 264.892 93.1398C268.494 93.1398 271.409 96.0544 271.409 99.656V195.194Z" fill="#D9F6F5"/>
<path d="M138.957 195.194C138.957 198.795 136.042 201.71 132.441 201.71C128.839 201.71 125.924 198.795 125.924 195.194V99.656C125.924 96.0544 128.839 93.1398 132.441 93.1398C136.042 93.1398 138.957 96.0544 138.957 99.656V195.194Z" fill="#D9F6F5"/>
<path d="M13.0324 195.194C13.0324 198.795 10.1178 201.71 6.5162 201.71C2.91456 201.71 0 198.795 0 195.194V99.656C0 96.0544 2.91456 93.1398 6.5162 93.1398C10.1178 93.1398 13.0324 96.0544 13.0324 99.656V195.194Z" fill="#D9F6F5"/>
<path d="M227.978 238.613C227.978 242.215 225.064 245.129 221.462 245.129C217.86 245.129 214.946 242.215 214.946 238.613V34.5162C214.946 30.9146 217.86 28 221.462 28C225.064 28 227.978 30.9146 227.978 34.5162V238.613Z" fill="#D9F6F5"/>
<path d="M54.2797 238.613C54.2797 242.215 51.3652 245.129 47.7635 245.129C44.1619 245.129 41.2473 242.215 41.2473 238.613V34.5162C41.2473 30.9146 44.1619 28 47.7635 28C51.3652 28 54.2797 30.9146 54.2797 34.5162V238.613Z" fill="#D9F6F5"/>
<path d="M182.387 220.161C182.387 223.165 179.96 225.592 176.957 225.592C173.953 225.592 171.526 223.165 171.526 220.161V74.6883C171.526 71.6851 173.953 69.2582 176.957 69.2582C179.96 69.2582 182.387 71.6851 182.387 74.6883V220.161Z" fill="#D9F6F5"/>
<path d="M93.3658 213.645C93.3658 216.648 90.9389 219.075 87.9357 219.075C84.9324 219.075 82.5055 216.648 82.5055 213.645V68.1721C82.5055 65.1689 84.9324 62.742 87.9357 62.742C90.9389 62.742 93.3658 65.1689 93.3658 68.1721V213.645Z" fill="#D9F6F5"/>
<path d="M525.032 105.656C525.032 102.054 522.118 99.1398 518.516 99.1398C514.915 99.1398 512 102.054 512 105.656V201.194C512 204.795 514.915 207.71 518.516 207.71C522.118 207.71 525.032 204.795 525.032 201.194V105.656Z" fill="#D9F6F5"/>
<path d="M657.484 105.656C657.484 102.054 654.57 99.1398 650.968 99.1398C647.366 99.1398 644.452 102.054 644.452 105.656V201.194C644.452 204.795 647.366 207.71 650.968 207.71C654.57 207.71 657.484 204.795 657.484 201.194V105.656Z" fill="#D9F6F5"/>
<path d="M783.42 105.656C783.42 102.054 780.505 99.1398 776.904 99.1398C773.302 99.1398 770.387 102.054 770.387 105.656V201.194C770.387 204.795 773.302 207.71 776.904 207.71C780.505 207.71 783.42 204.795 783.42 201.194V105.656Z" fill="#D9F6F5"/>
<path d="M568.463 40.5162C568.463 36.9146 565.548 34 561.946 34C558.345 34 555.43 36.9146 555.43 40.5162V244.613C555.43 248.215 558.345 251.129 561.946 251.129C565.548 251.129 568.463 248.215 568.463 244.613V40.5162Z" fill="#D9F6F5"/>
<path d="M742.162 40.5162C742.162 36.9146 739.247 34 735.646 34C732.044 34 729.129 36.9146 729.129 40.5162V244.613C729.129 248.215 732.044 251.129 735.646 251.129C739.247 251.129 742.162 248.215 742.162 244.613V40.5162Z" fill="#D9F6F5"/>
<path d="M611.882 80.6883C611.882 77.6851 609.455 75.2582 606.452 75.2582C603.449 75.2582 601.022 77.6851 601.022 80.6883V226.161C601.022 229.165 603.449 231.592 606.452 231.592C609.455 231.592 611.882 229.165 611.882 226.161V80.6883Z" fill="#D9F6F5"/>
<path d="M700.904 74.1721C700.904 71.1689 698.477 68.742 695.473 68.742C692.47 68.742 690.043 71.1689 690.043 74.1721V219.645C690.043 222.648 692.47 225.075 695.473 225.075C698.477 225.075 700.904 222.648 700.904 219.645V74.1721Z" fill="#D9F6F5"/>
<path d="M533.028 173.955C541.908 166.609 547 156.054 547 145C547 133.946 541.904 123.383 533.024 116.038C532.671 115.746 532.293 115.481 531.932 115.201C532.338 114.694 532.723 114.176 533.089 113.646C533.166 113.551 533.259 113.479 533.328 113.377C533.58 113.006 533.803 112.628 534.035 112.246C534.047 112.223 534.063 112.2 534.076 112.181C535.026 110.603 535.797 108.949 536.386 107.235C536.402 107.193 536.414 107.152 536.431 107.11C536.987 105.464 537.373 103.768 537.584 102.043C537.604 101.865 537.628 101.687 537.645 101.505C537.73 100.673 537.787 99.8326 537.787 98.9887C537.787 85.4139 526.966 74.1816 512.945 72.3159C511.016 47.6792 489.849 27.9546 463.415 26.1532C461.414 13.0893 449.358 3 434.797 3C418.836 3 405.854 15.1027 405.854 29.9755V63.7177C400.304 65.3979 396.276 70.2572 396.276 75.983C396.276 81.7089 400.304 86.5681 405.854 88.2484V93.6072C405.854 110.172 419.376 123.845 436.673 125.552C438.415 130.82 443.686 134.661 449.902 134.661C456.119 134.661 461.426 130.793 463.147 125.495C477.217 123.826 488.152 112.726 488.399 99.2196C488.403 99.1401 488.424 99.0682 488.424 98.9887C488.424 88.4944 497.584 79.9567 508.844 79.9567C520.103 79.9567 529.26 88.4944 529.26 98.9887C529.26 99.5677 529.219 100.143 529.166 100.711C529.15 100.896 529.126 101.078 529.106 101.263C529.053 101.676 528.984 102.084 528.903 102.489C528.85 102.747 528.797 103.004 528.736 103.258C528.639 103.651 528.529 104.045 528.407 104.431C528.318 104.707 528.22 104.979 528.119 105.252C528.03 105.494 527.932 105.733 527.831 105.971C527.668 106.357 527.489 106.739 527.303 107.114C527.144 107.424 526.986 107.735 526.811 108.037C526.669 108.283 526.511 108.522 526.357 108.764C525.906 109.46 525.402 110.13 524.854 110.773C523.124 109.922 521.342 109.169 519.503 108.556C517.29 107.814 514.845 108.885 514.049 110.951C513.254 113.018 514.407 115.292 516.62 116.034C518.934 116.81 521.155 117.831 523.23 119.069C523.25 119.08 523.271 119.088 523.287 119.103C523.303 119.114 523.323 119.122 523.344 119.133C524.757 119.985 526.109 120.942 527.368 121.983C534.429 127.822 538.477 136.213 538.477 145C538.477 153.787 534.429 162.174 527.372 168.013C526.868 168.43 526.511 168.937 526.271 169.482C524.984 168.577 523.612 167.752 522.146 167.044C515.207 163.691 509.92 158.942 506.696 153.243C511.317 151.15 514.52 146.745 514.52 141.643C514.52 134.528 508.312 128.742 500.678 128.742C493.045 128.742 486.836 134.528 486.836 141.643C486.836 147.819 491.518 152.989 497.747 154.245L497.885 154.537C501.738 162.768 508.771 169.535 518.219 174.099C525.029 177.387 529.256 183.866 529.256 191.008C529.256 200.208 522.211 207.905 512.884 209.657C510.61 185.244 489.439 165.811 463.107 164.157C461.349 158.915 456.09 155.101 449.894 155.101C442.26 155.101 436.052 160.887 436.052 168.002C436.052 175.117 442.26 180.903 449.894 180.903C455.981 180.903 461.154 177.217 463.001 172.119C486.223 173.803 504.572 191.942 504.572 214.013C504.572 236.084 486.422 254.03 463.371 255.881C461.783 246.397 454.884 238.207 444.9 234.737C441.347 233.503 439.053 230.589 439.053 227.312V225.764C439.053 221.476 442.796 217.987 447.397 217.987H451.287C453.09 223.16 458.303 226.914 464.451 226.914C472.084 226.914 478.293 221.128 478.293 214.013C478.293 206.898 472.084 201.112 464.451 201.112C458.307 201.112 453.094 204.866 451.287 210.04H447.397C438.094 210.04 430.526 217.094 430.526 225.764V227.312C430.526 233.942 435 239.778 441.919 242.181C450.702 245.235 456.111 253.466 455.075 262.201C454.04 270.927 446.495 277.963 437.128 278.928C431.22 279.537 425.552 277.857 421.17 274.197C416.846 270.591 414.369 265.421 414.369 260.017V145C414.369 133.499 404.332 124.144 391.992 124.144C386.762 124.144 381.954 125.839 378.142 128.651V29.9793C378.142 22.3196 374.629 14.9929 368.502 9.88012C362.379 4.77112 354.144 2.32258 345.918 3.17408C332.896 4.51378 322.375 14.1263 320.56 26.1608C294.135 27.966 272.976 47.6905 271.047 72.3197C257.03 74.1854 246.205 85.4215 246.205 98.9925C246.205 99.6472 246.233 100.298 246.282 100.945C246.29 101.059 246.311 101.172 246.319 101.286C246.367 101.823 246.424 102.361 246.51 102.894C246.522 102.959 246.534 103.023 246.546 103.087C246.644 103.67 246.753 104.249 246.891 104.821V104.828C247.606 107.848 248.873 110.739 250.659 113.381C250.684 113.419 250.724 113.445 250.749 113.483C251.171 114.1 251.614 114.698 252.089 115.281C251.894 115.379 251.703 115.481 251.52 115.61C251.297 115.773 251.106 115.917 250.964 116.038C242.096 123.383 237 133.938 237 145C237 145 237 145.004 237 145.008C237 145.011 237 145.011 237 145.015C237 156.073 242.096 166.632 250.976 173.978C251.325 174.265 251.699 174.53 252.06 174.806C248.321 179.45 246.213 185.138 246.213 191.008C246.213 204.582 257.034 215.815 271.055 217.68C272.984 242.317 294.151 262.042 320.585 263.843C322.586 276.907 334.642 286.996 349.203 286.996C365.164 286.996 378.146 274.894 378.146 260.021V226.279C383.696 224.598 387.724 219.739 387.724 214.013C387.724 208.287 383.696 203.428 378.146 201.748V196.162C378.146 179.597 364.62 165.924 347.327 164.217C345.585 158.949 340.314 155.104 334.098 155.104C327.881 155.104 322.647 158.919 320.885 164.161C294.553 165.814 273.382 185.248 271.108 209.661C261.781 207.905 254.736 200.211 254.736 191.011C254.736 186.659 256.295 182.58 259.138 179.242C260.871 180.097 262.658 180.85 264.497 181.463C264.973 181.622 265.46 181.698 265.939 181.698C267.689 181.698 269.325 180.687 269.951 179.064C270.746 176.997 269.593 174.723 267.376 173.981C265.074 173.213 262.865 172.195 260.794 170.965C260.75 170.935 260.705 170.916 260.66 170.889C260.66 170.889 260.66 170.889 260.656 170.889C259.264 170.053 257.932 169.107 256.693 168.085C256.669 168.062 256.653 168.04 256.628 168.017C249.571 162.181 245.527 153.795 245.523 145.011C245.523 141.961 246.043 138.964 246.977 136.099C247.05 135.872 247.098 135.637 247.18 135.41C247.289 135.096 247.439 134.801 247.561 134.491C249.035 130.744 251.252 127.247 254.204 124.239C254.35 124.087 254.521 123.955 254.671 123.811C255.341 123.152 256.019 122.505 256.758 121.896C257.241 121.548 257.615 121.12 257.891 120.647C259.548 121.798 261.347 122.793 263.275 123.603C268.485 125.79 273.089 129.31 276.638 133.719C272.375 135.921 269.484 140.152 269.484 145.008C269.484 152.122 275.692 157.909 283.326 157.909C290.959 157.909 297.168 152.122 297.168 145.008C297.168 138.714 292.303 133.469 285.9 132.341C281.292 125.283 274.596 119.64 266.783 116.359C260.413 113.68 256.007 108.162 254.98 101.842C254.976 101.816 254.968 101.785 254.963 101.759C254.903 101.373 254.862 100.987 254.825 100.597C254.817 100.525 254.805 100.453 254.801 100.381C254.765 99.9235 254.748 99.4655 254.748 99.0038C254.748 88.5096 263.909 79.9719 275.164 79.9719C286.42 79.9719 295.584 88.5096 295.584 99.0038C295.584 99.0833 295.605 99.159 295.609 99.2347C295.856 112.741 306.791 123.841 320.861 125.51C322.582 130.808 327.865 134.676 334.106 134.676C341.74 134.676 347.948 128.89 347.948 121.775C347.948 114.66 341.74 108.874 334.106 108.874C328.08 108.874 322.956 112.488 321.06 117.506C311.453 115.966 304.111 108.162 304.111 98.773C304.111 98.6935 304.091 98.6178 304.087 98.5421C303.843 85.2852 293.302 74.3557 279.61 72.3765C281.478 52.0843 298.873 35.8755 320.641 34.1309C322.217 43.4557 328.941 51.5734 338.666 55.1194C342.422 56.4894 344.947 60.0316 344.947 63.9334C344.947 69.2127 340.339 73.508 334.674 73.508H332.717C330.914 68.3347 325.701 64.5805 319.553 64.5805C311.92 64.5805 305.711 70.3669 305.711 77.4817C305.711 84.5965 311.92 90.3829 319.553 90.3829C325.697 90.3829 330.914 86.6287 332.717 81.4554H334.674C345.041 81.4554 353.474 73.5951 353.474 63.9334C353.474 56.7883 348.772 50.2715 341.772 47.7208C333.188 44.5911 327.902 36.4015 328.921 27.8108C329.956 19.0839 337.5 12.0486 346.868 11.0836C352.776 10.4781 358.444 12.1546 362.826 15.8141C367.15 19.4207 369.627 24.5903 369.627 29.9945V145.011C369.627 156.512 379.664 165.867 392.004 165.867C397.234 165.867 402.042 164.172 405.854 161.36V260.028C405.854 267.688 409.367 275.015 415.494 280.127C420.817 284.57 427.736 287 434.866 287C435.934 287 437.006 286.947 438.078 286.837C451.1 285.498 461.621 275.885 463.436 263.851C489.861 262.045 511.02 242.321 512.949 217.692C526.966 215.826 537.791 204.59 537.791 191.019C537.791 184.968 535.635 179.264 531.854 174.651C532.277 174.488 532.679 174.265 533.036 173.97L533.028 173.955ZM410.11 71.0368C413.041 71.0368 415.425 73.2582 415.425 75.9906C415.425 78.723 413.041 80.9445 410.11 80.9445C407.178 80.9445 404.795 78.723 404.795 75.9906C404.795 73.2582 407.178 71.0368 410.11 71.0368ZM449.894 126.721C446.962 126.721 444.579 124.5 444.579 121.767C444.579 119.035 446.958 116.817 449.886 116.813C449.886 116.813 449.886 116.813 449.89 116.813C452.818 116.813 455.201 119.035 455.201 121.767C455.201 124.5 452.818 126.721 449.886 126.721H449.894ZM479.913 98.5346C479.909 98.614 479.889 98.6859 479.889 98.7654C479.889 108.155 472.547 115.958 462.94 117.498C461.71 114.244 459.123 111.591 455.806 110.123L465.133 90.0763C471.358 88.8161 476.035 83.6466 476.035 77.4741C476.035 70.3594 469.827 64.5729 462.193 64.5729C454.56 64.5729 448.351 70.3594 448.351 77.4741C448.351 82.6134 451.599 87.0488 456.281 89.1189L446.954 109.165C442.22 110.123 438.395 113.343 436.827 117.548C424.171 115.951 414.369 105.839 414.369 93.611V88.2522C419.92 86.5719 423.948 81.7127 423.948 75.9868C423.948 70.261 419.92 65.4017 414.369 63.7214V29.9793C414.369 19.485 423.529 10.9511 434.785 10.9511C446.041 10.9511 455.205 19.4888 455.205 29.9793C455.205 40.4698 446.045 49.0113 434.785 49.0113C432.43 49.0113 430.522 50.79 430.522 52.985C430.522 55.1799 432.43 56.9586 434.785 56.9586C449.232 56.9586 461.207 47.032 463.354 34.1195C485.127 35.8603 502.522 52.0729 504.39 72.3651C490.694 74.3444 480.153 85.2739 479.913 98.5308V98.5346ZM462.193 82.428C459.262 82.428 456.878 80.2065 456.878 77.4741C456.878 74.7417 459.262 72.5203 462.193 72.5203C465.125 72.5203 467.508 74.7417 467.508 77.4741C467.508 80.2065 465.125 82.428 462.193 82.428ZM500.674 136.689C503.606 136.689 505.989 138.911 505.989 141.643C505.989 144.376 503.606 146.597 500.674 146.597C497.743 146.597 495.359 144.376 495.359 141.643C495.359 138.911 497.743 136.689 500.674 136.689ZM449.894 172.956C446.962 172.956 444.579 170.734 444.579 168.002C444.579 165.27 446.962 163.048 449.894 163.048C452.826 163.048 455.209 165.27 455.209 168.002C455.209 170.734 452.826 172.956 449.894 172.956ZM464.447 209.059C467.374 209.059 469.762 211.281 469.762 214.013C469.762 216.746 467.378 218.967 464.447 218.967C461.515 218.967 459.132 216.746 459.132 214.013C459.132 211.281 461.515 209.059 464.447 209.059ZM373.882 218.963C370.951 218.963 368.567 216.742 368.567 214.009C368.567 211.277 370.951 209.056 373.882 209.056C376.814 209.056 379.197 211.277 379.197 214.009C379.197 216.742 376.814 218.963 373.882 218.963ZM334.098 163.052C337.029 163.052 339.413 165.273 339.413 168.006C339.413 170.738 337.029 172.959 334.098 172.959C331.166 172.959 328.783 170.738 328.783 168.006C328.783 165.273 331.166 163.052 334.098 163.052ZM320.991 172.119C322.172 175.385 324.722 178.061 327.999 179.567L316.723 201.381C310.438 202.599 305.703 207.795 305.703 214.009C305.703 221.124 311.911 226.911 319.545 226.911C327.179 226.911 333.387 221.124 333.387 214.009C333.387 208.938 330.22 204.552 325.64 202.444L336.916 180.631C341.703 179.703 345.581 176.46 347.164 172.222C359.821 173.819 369.623 183.931 369.623 196.158V201.744C364.072 203.424 360.044 208.284 360.044 214.009C360.044 219.735 364.072 224.594 369.623 226.275V260.017C369.623 270.511 360.462 279.045 349.207 279.045C337.951 279.045 328.787 270.507 328.787 260.017C328.787 249.526 337.947 240.985 349.207 240.985C351.562 240.985 353.47 239.206 353.47 237.011C353.47 234.816 351.562 233.038 349.207 233.038C334.76 233.038 322.785 242.964 320.637 255.877C297.582 254.034 279.424 235.967 279.424 214.009C279.424 192.052 297.773 173.803 320.995 172.116L320.991 172.119ZM319.537 209.059C319.537 209.059 319.537 209.059 319.541 209.059C322.469 209.059 324.852 211.281 324.852 214.013C324.852 216.746 322.469 218.967 319.537 218.967C316.605 218.967 314.222 216.746 314.222 214.013C314.222 211.281 316.601 209.063 319.529 209.063L319.537 209.059ZM283.318 149.954C280.386 149.954 278.003 147.732 278.003 145C278.003 142.268 280.386 140.05 283.314 140.046C283.314 140.046 283.314 140.046 283.318 140.046C286.245 140.046 288.625 142.268 288.625 144.996C288.625 147.725 286.241 149.95 283.31 149.95L283.318 149.954ZM334.098 116.817C337.029 116.817 339.413 119.039 339.413 121.771C339.413 124.503 337.029 126.725 334.098 126.725C331.166 126.725 328.783 124.503 328.783 121.771C328.783 119.039 331.166 116.817 334.098 116.817ZM319.545 82.428C316.618 82.428 314.23 80.2065 314.23 77.4741C314.23 74.7417 316.613 72.5203 319.545 72.5203C322.477 72.5203 324.86 74.7417 324.86 77.4741C324.86 80.2065 322.477 82.428 319.545 82.428ZM391.996 157.909C384.358 157.909 378.146 152.119 378.146 145C378.146 137.881 384.358 132.091 391.996 132.091C399.634 132.091 405.846 137.881 405.846 145C405.846 152.119 399.634 157.909 391.996 157.909Z" fill="#000F6F"/>
<circle cx="391.5" cy="143.5" r="143.5" fill="#5881F2" fill-opacity="0.1"/>
</svg>
